<?xml version="1.0" encoding="UTF-8"?>
<svg version="1.1" xmlns="http://www.w3.org/2000/svg" width="256" height="256">
<path d="M0 0 C84.48 0 168.96 0 256 0 C256 84.48 256 168.96 256 256 C171.52 256 87.04 256 0 256 C0 171.52 0 87.04 0 0 Z " fill="#FDFDFD" transform="translate(0,0)"/>
<path d="M0 0 C2.19140625 1.36328125 2.19140625 1.36328125 5.06640625 3.86328125 C1.33203125 4.91796875 1.33203125 4.91796875 -1.05859375 4.42578125 C-10.80118253 2.51962258 -18.40932919 4.414431 -26.76171875 9.62890625 C-40.91536116 19.4513794 -51.66038872 34.76741986 -54.93359375 51.86328125 C-55.35285887 56.48136327 -55.40526402 60.44827045 -53.93359375 64.86328125 C-50.63359375 65.52328125 -47.33359375 66.18328125 -43.93359375 66.86328125 C-44.73796875 66.40953125 -45.54234375 65.95578125 -46.37109375 65.48828125 C-48.93359375 63.86328125 -48.93359375 63.86328125 -49.93359375 61.86328125 C-50.88328895 54.26571967 -48.38281447 49.91963492 -43.93359375 43.86328125 C-35.02258223 32.57732308 -35.02258223 32.57732308 -31.10546875 29.36328125 C-29.23512929 26.96924675 -29.72372453 24.75894886 -29.87109375 21.80078125 C-30.0234375 18.578125 -30.0234375 18.578125 -29.93359375 15.86328125 C-27.93359375 13.86328125 -27.93359375 13.86328125 -24.62109375 13.55078125 C-20.93359375 13.86328125 -20.93359375 13.86328125 -18.7734375 15.3671875 C-14.75977347 17.48167625 -11.27000615 17.22786006 -6.80859375 17.11328125 C-5.99777344 17.108125 -5.18695313 17.10296875 -4.3515625 17.09765625 C-0.89493364 17.05194876 1.7563189 16.9666437 5.06640625 15.86328125 C6.40166342 15.78354649 7.74052708 15.75556787 9.078125 15.765625 C10.21411133 15.77045898 10.21411133 15.77045898 11.37304688 15.77539062 C12.15873047 15.78376953 12.94441406 15.79214844 13.75390625 15.80078125 C14.55119141 15.80529297 15.34847656 15.80980469 16.16992188 15.81445312 C18.13544882 15.82622275 20.1009371 15.84415777 22.06640625 15.86328125 C23.46413621 18.65874118 23.44091465 21.38637594 23.6875 24.4765625 C23.98646378 26.93002879 23.98646378 26.93002879 25.0625 29.34765625 C26.80509831 33.71432283 26.80612256 38.20709518 27.06640625 42.86328125 C27.15535156 43.95253906 27.24429688 45.04179688 27.3359375 46.1640625 C27.81723734 56.04749883 25.10316499 63.08281871 21.06640625 71.86328125 C17.1456563 80.55288663 18.65561775 87.14367063 21.44140625 95.86328125 C27.98163792 117.60487657 29.40281153 139.15568757 24.48999023 161.48291016 C22.03940383 172.38217501 22.03940383 172.38217501 25.12890625 182.67578125 C27.06640625 185.86328125 27.06640625 185.86328125 27.12890625 188.55078125 C25.36219596 192.39597424 22.50215355 194.18178633 18.75390625 195.9609375 C11.77878601 198.30287467 4.14306163 197.07649119 -2.84375 195.3203125 C-7.42302873 194.31886276 -11.48541562 194.08990598 -15.72412109 196.35351562 C-21.04202007 198.8551045 -26.63083297 198.38260666 -32.39892578 198.36425781 C-34.53298171 198.36329283 -36.66334396 198.40480103 -38.796875 198.44921875 C-47.75888928 198.52845532 -54.91910809 197.10843233 -62.93359375 192.86328125 C-63.59794434 192.52377441 -64.26229492 192.18426758 -64.94677734 191.83447266 C-100.35092074 172.66764326 -120.33067069 126.22701697 -131.93359375 89.86328125 C-133.59357523 83.92516216 -134.85152579 77.93059087 -135.93359375 71.86328125 C-136.10721436 70.93161133 -136.28083496 69.99994141 -136.4597168 69.04003906 C-137.31593 63.30019041 -137.20229193 57.5318025 -137.24609375 51.73828125 C-137.27509766 50.48273438 -137.30410156 49.2271875 -137.33398438 47.93359375 C-137.40459608 37.4613354 -135.84335767 27.15499795 -128.93359375 18.86328125 C-123.18480677 13.04263444 -117.57890192 9.77558165 -109.24609375 9.36328125 C-101.31472105 9.57226347 -93.99173779 12.45295946 -87.49609375 16.98828125 C-76.54010222 29.28036931 -76.3818736 47.06359006 -75.74609375 62.61328125 C-75.66452191 64.38937427 -75.58184769 66.16541701 -75.49804688 67.94140625 C-75.29719577 72.2482244 -75.11122659 76.55544558 -74.93359375 80.86328125 C-74.11955078 79.22540649 -74.11955078 79.22540649 -73.2890625 77.55444336 C-72.56646699 76.10397364 -71.84380735 74.65353588 -71.12109375 73.203125 C-70.76466797 72.4855603 -70.40824219 71.76799561 -70.04101562 71.02868652 C-68.08713069 67.11083352 -66.07100288 63.24787333 -63.93359375 59.42578125 C-61.30535654 54.11603175 -60.82546121 49.37026888 -62.62109375 43.6875 C-63.16492306 42.21550048 -63.71051054 40.74414939 -64.2578125 39.2734375 C-65.47860509 34.91951247 -65.52223675 30.3354391 -64.93359375 25.86328125 C-62.93359375 23.86328125 -62.93359375 23.86328125 -60.140625 23.765625 C-59.02042969 23.77722656 -57.90023437 23.78882812 -56.74609375 23.80078125 C-51.89600957 23.5718144 -51.89600957 23.5718144 -47.90625 21.1171875 C-46.81023464 19.57097513 -45.75047527 17.99861002 -44.72265625 16.40625 C-41.33917805 11.59698295 -36.64699448 8.29705477 -31.93359375 4.86328125 C-31.10214844 4.23679687 -30.27070313 3.6103125 -29.4140625 2.96484375 C-21.07915674 -2.48933421 -9.37004404 -3.6307361 0 0 Z " fill="#463630" transform="translate(170.93359375,30.13671875)"/>
<path d="M0 0 C3.6875 0.3125 3.6875 0.3125 5.84765625 1.81640625 C9.86132028 3.930895 13.3510876 3.67707881 17.8125 3.5625 C18.62332031 3.55734375 19.43414062 3.5521875 20.26953125 3.546875 C23.72616011 3.50116751 26.37741265 3.41586245 29.6875 2.3125 C31.02275717 2.23276524 32.36162083 2.20478662 33.69921875 2.21484375 C34.83520508 2.21967773 34.83520508 2.21967773 35.99414062 2.22460938 C37.17266602 2.23717773 37.17266602 2.23717773 38.375 2.25 C39.17228516 2.25451172 39.96957031 2.25902344 40.79101562 2.26367188 C42.75654257 2.2754415 44.72203085 2.29337652 46.6875 2.3125 C48.08522996 5.10795993 48.0620084 7.83559469 48.30859375 10.92578125 C48.60632803 13.37085041 48.60632803 13.37085041 49.6640625 15.75 C51.88534384 21.31168152 52.58635817 27.46227451 50.7734375 33.2109375 C48.65906426 37.63425821 46.80554843 40.55243756 42.6875 43.3125 C42.63851562 42.38566406 42.58953125 41.45882812 42.5390625 40.50390625 C42.42691406 38.70759766 42.42691406 38.70759766 42.3125 36.875 C42.20808594 35.08255859 42.20808594 35.08255859 42.1015625 33.25390625 C41.89660156 31.79791016 41.89660156 31.79791016 41.6875 30.3125 C41.0275 29.9825 40.3675 29.6525 39.6875 29.3125 C39.81125 30.405625 39.935 31.49875 40.0625 32.625 C40.09451444 38.59035656 37.00503735 43.51781098 33.6875 48.3125 C29.3040661 51.23478927 25.83144692 51.18537182 20.6875 50.3125 C12.43987556 47.07502751 4.86155517 42.49376207 -2.3125 37.3125 C-2.0959375 37.89515625 -1.879375 38.4778125 -1.65625 39.078125 C3.10799522 53.10618038 0.01102862 62.1801299 -6.24609375 75.06640625 C-6.61790771 75.81220947 -6.98972168 76.5580127 -7.37280273 77.32641602 C-10.15673989 83.21036738 -9.5756656 89.3003393 -9.625 95.6875 C-9.65400391 96.90050781 -9.68300781 98.11351562 -9.71289062 99.36328125 C-9.77317034 108.05283461 -8.2411456 115.1637727 -5.3125 123.3125 C-4.5338685 125.76317714 -3.79983372 128.22386907 -3.0625 130.6875 C-2.72734375 131.78835937 -2.3921875 132.88921875 -2.046875 134.0234375 C-1.25600034 137.56554634 -1.11497756 140.694248 -1.3125 144.3125 C-2.3125 145.3125 -2.3125 145.3125 -4.55078125 145.5859375 C-13.60981365 144.6890036 -22.58822993 133.79353798 -28.3125 127.3125 C-30.7882095 124.06479507 -33.10522673 120.74766038 -35.3125 117.3125 C-36.85621756 122.54805081 -36.49684216 127.89996891 -36.5 133.3125 C-36.51224609 134.38628906 -36.52449219 135.46007812 -36.53710938 136.56640625 C-36.548911 143.10450773 -36.00145053 149.23764419 -34.7434082 155.65625 C-34.3209745 158.26026056 -34.23708829 160.67994577 -34.3125 163.3125 C-43.6937336 155.35266543 -49.27564765 142.26602142 -51.3125 130.3125 C-52.51501415 111.51108581 -52.0856031 94.06461269 -45.3125 76.3125 C-44.61937601 74.39124383 -43.92802991 72.46934552 -43.23828125 70.546875 C-37.36778322 54.49473195 -37.36778322 54.49473195 -34.3125 50.3125 C-31.625 49.5 -31.625 49.5 -29.3125 49.3125 C-29.3125 49.9725 -29.3125 50.6325 -29.3125 51.3125 C-26.0125 51.9725 -22.7125 52.6325 -19.3125 53.3125 C-20.116875 52.85875 -20.92125 52.405 -21.75 51.9375 C-24.3125 50.3125 -24.3125 50.3125 -25.3125 48.3125 C-26.2621952 40.71493842 -23.76172072 36.36885367 -19.3125 30.3125 C-10.40148848 19.02654183 -10.40148848 19.02654183 -6.484375 15.8125 C-4.61403554 13.4184655 -5.10263078 11.20816761 -5.25 8.25 C-5.40234375 5.02734375 -5.40234375 5.02734375 -5.3125 2.3125 C-3.3125 0.3125 -3.3125 0.3125 0 0 Z " fill="#9F8370" transform="translate(146.3125,43.6875)"/>
<path d="M0 0 C1.32 0.66 2.64 1.32 4 2 C3.34372399 6.54143002 1.58421093 10.43059123 -0.3125 14.5625 C-11.97515712 40.68756527 -16.89429359 70.71293172 -7.25 98.3125 C-6 102 -6 102 -7 105 C-8.11780914 102.9021938 -9.21881269 100.79785439 -10.3125 98.6875 C-10.62123047 98.11193359 -10.92996094 97.53636719 -11.24804688 96.94335938 C-16.66529429 86.39398284 -17.61046941 75.81821095 -17.5625 64.125 C-17.5620166 63.39800903 -17.5615332 62.67101807 -17.56103516 61.92199707 C-17.50203995 49.11652491 -15.56835983 37.9735426 -11 26 C-10.30687601 24.07874383 -9.61552991 22.15684552 -8.92578125 20.234375 C-3.40982822 5.15169093 -3.40982822 5.15169093 0 0 Z " fill="#F6F5F4" transform="translate(112,94)"/>
<path d="M0 0 C1 1 1 1 1.3125 4.0625 C0.85061957 9.88219343 -1.41233501 13.88311335 -4.875 18.5 C-7.91526596 20.64607009 -9.31903107 20.6250702 -13 20 C-18.25832563 17.76864095 -23.17287041 15.14023561 -26 10 C-26.0625 7.375 -26.0625 7.375 -25 5 C-18.07543488 -0.66555328 -8.49530426 -0.58447693 0 0 Z " fill="#463630" transform="translate(193,47)"/>
<path d="M0 0 C-3 1 -3 1 -6 0 C-13.90968555 -0.61307601 -21.5289611 -1.14364631 -28 4 C-34.94023817 10.55908092 -38.57030938 18.59237702 -39.20849609 28.10913086 C-39.30557662 31.74194565 -39.3286193 35.36591562 -39.3125 39 C-39.30758545 40.29711914 -39.3026709 41.59423828 -39.29760742 42.93066406 C-39.13200115 56.48829786 -36.70941725 68.63637048 -32.53833008 81.50878906 C-30.89575508 86.68726524 -30.89575508 86.68726524 -32 90 C-39.07597305 73.58606253 -42.17778348 56.69350523 -42.3125 38.875 C-42.34150391 37.61945313 -42.37050781 36.36390625 -42.40039062 35.0703125 C-42.47100233 24.59805415 -40.90976392 14.2917167 -34 6 C-24.26928711 -3.8523468 -12.57500276 -5.80384743 0 0 Z " fill="#A48D7E" transform="translate(76,43)"/>
<path d="M0 0 C2.19140625 1.36328125 2.19140625 1.36328125 5.06640625 3.86328125 C1.68323138 4.83919708 -0.49932755 4.7218478 -3.93359375 3.86328125 C-3.60359375 3.20328125 -3.27359375 2.54328125 -2.93359375 1.86328125 C-13.8079734 1.174868 -21.83866853 1.1046671 -30.93359375 7.86328125 C-31.87976563 8.55164062 -32.8259375 9.24 -33.80078125 9.94921875 C-38.4734723 13.55820777 -42.10230166 16.89589769 -45.30859375 21.86328125 C-47.52030566 24.98793567 -48.4572465 25.75050646 -52.25 26.6484375 C-55.87109375 26.92578125 -55.87109375 26.92578125 -61.93359375 26.86328125 C-62.26359375 31.15328125 -62.59359375 35.44328125 -62.93359375 39.86328125 C-65.17593384 36.49977112 -65.2045759 35.24018069 -65.18359375 31.30078125 C-65.18875 30.33011719 -65.19390625 29.35945313 -65.19921875 28.359375 C-64.93359375 25.86328125 -64.93359375 25.86328125 -62.93359375 23.86328125 C-60.8722482 23.79120623 -58.80858836 23.77942055 -56.74609375 23.80078125 C-51.89600957 23.5718144 -51.89600957 23.5718144 -47.90625 21.1171875 C-46.81023464 19.57097513 -45.75047527 17.99861002 -44.72265625 16.40625 C-41.33917805 11.59698295 -36.64699448 8.29705477 -31.93359375 4.86328125 C-31.10214844 4.23679687 -30.27070313 3.6103125 -29.4140625 2.96484375 C-21.07915674 -2.48933421 -9.37004404 -3.6307361 0 0 Z " fill="#A58C7A" transform="translate(170.93359375,30.13671875)"/>
<path d="M0 0 C5.11990341 0.33031635 9.14765459 1.52265459 12.875 5.25 C11.97136719 5.72050781 11.06773437 6.19101562 10.13671875 6.67578125 C8.94516014 7.30439878 7.75376228 7.93332109 6.5625 8.5625 C5.96759766 8.87123047 5.37269531 9.17996094 4.75976562 9.49804688 C1.72054523 11.11104094 -0.87876212 12.61452235 -3.125 15.25 C-3.785 14.92 -4.445 14.59 -5.125 14.25 C-4.96 13.21875 -4.795 12.1875 -4.625 11.125 C-4.05301612 7.34331243 -4.05301612 7.34331243 -4.125 3.875 C-4.125 0.05294546 -3.86324368 0.30905949 0 0 Z " fill="#483731" transform="translate(147.125,45.75)"/>
<path d="M0 0 C0.66 0 1.32 0 2 0 C1.54965877 1.62723299 1.08944646 3.25173664 0.625 4.875 C0.36976563 5.77992187 0.11453125 6.68484375 -0.1484375 7.6171875 C-1 10 -1 10 -3 12 C-3.33 11.01 -3.66 10.02 -4 9 C-4.391875 9.969375 -4.78375 10.93875 -5.1875 11.9375 C-7 15 -7 15 -9.6875 15.875 C-10.450625 15.91625 -11.21375 15.9575 -12 16 C-13.81546807 12.14213034 -14.09380477 9.23294004 -14 5 C-13.07316406 4.72285156 -12.14632812 4.44570312 -11.19140625 4.16015625 C-9.99386719 3.79792969 -8.79632813 3.43570313 -7.5625 3.0625 C-6.36753906 2.70285156 -5.17257813 2.34320313 -3.94140625 1.97265625 C-1.14132455 1.29110858 -1.14132455 1.29110858 0 0 Z " fill="#F3F2F1" transform="translate(185,94)"/>
<path d="M0 0 C3.26096975 3.26096975 3.92967896 6.10483217 4.2890625 10.6796875 C4.23122208 15.46298078 2.5226632 18.87374624 0.25 23 C-0.09804687 23.66 -0.44609375 24.32 -0.8046875 25 C-1.50780517 26.33331944 -2.21582249 27.66406656 -2.92871094 28.9921875 C-5.71901716 34.22178603 -8.28797985 39.39422814 -10.25 45 C-10.58515625 45.94875 -10.9203125 46.8975 -11.265625 47.875 C-11.50796875 48.57625 -11.7503125 49.2775 -12 50 C-12.33 50 -12.66 50 -13 50 C-13.45247791 43.96956165 -12.16895508 40.44796563 -9.375 35.3125 C-9.01470703 34.61697021 -8.65441406 33.92144043 -8.28320312 33.20483398 C-6.6104091 29.98100461 -4.88486453 26.79092554 -3.1328125 23.609375 C1.41998235 15.11372911 1.92294243 9.37434434 0 0 Z " fill="#A08775" transform="translate(108,70)"/>
<path d="M0 0 C2.19140625 1.36328125 2.19140625 1.36328125 5.06640625 3.86328125 C1.68323138 4.83919708 -0.49932755 4.7218478 -3.93359375 3.86328125 C-3.60359375 3.20328125 -3.27359375 2.54328125 -2.93359375 1.86328125 C-13.90824459 1.16852024 -21.60010112 1.29526792 -30.93359375 7.86328125 C-31.92359375 8.35828125 -31.92359375 8.35828125 -32.93359375 8.86328125 C-32.59316427 6.11595565 -32.13912287 5.05035995 -30.0625 3.16015625 C-21.24257977 -2.15596005 -9.80502469 -3.79928387 0 0 Z " fill="#A78E7D" transform="translate(170.93359375,30.13671875)"/>
<path d="M0 0 C-3 1 -3 1 -6 0 C-16.3300958 -0.80068087 -22.79250465 0.09437848 -31 6.25 C-31.66 6.8275 -32.32 7.405 -33 8 C-32.68349428 5.04594663 -32.04226918 4.04102597 -29.875 1.9375 C-20.30465907 -4.51207758 -10.47107383 -4.83280331 0 0 Z " fill="#A18776" transform="translate(76,43)"/>
<path d="M0 0 C0.66 0 1.32 0 2 0 C1.50448816 5.82226407 0.10309539 10.98730745 -3 16 C-5.4375 17.5 -5.4375 17.5 -8 18 C-8.928125 18.20625 -9.85625 18.4125 -10.8125 18.625 C-11.534375 18.74875 -12.25625 18.8725 -13 19 C-12.401875 18.67 -11.80375 18.34 -11.1875 18 C-8.10071812 15.17779943 -7.23011277 11.92331421 -6 8 C-5.34 9.32 -4.68 10.64 -4 12 C-3.79503906 11.30132812 -3.59007812 10.60265625 -3.37890625 9.8828125 C-3.10949219 8.97273438 -2.84007812 8.06265625 -2.5625 7.125 C-2.29566406 6.22007813 -2.02882812 5.31515625 -1.75390625 4.3828125 C-1 2 -1 2 0 0 Z " fill="#A28B7A" transform="translate(187,92)"/>
<path d="M0 0 C1.39456452 0.00667256 2.78911118 0.01863093 4.18359375 0.03515625 C4.89451172 0.03966797 5.60542969 0.04417969 6.33789062 0.04882812 C8.09899388 0.06064761 9.86005411 0.07858362 11.62109375 0.09765625 C11.62109375 0.42765625 11.62109375 0.75765625 11.62109375 1.09765625 C5.18609375 1.59265625 5.18609375 1.59265625 -1.37890625 2.09765625 C-1.70890625 6.38765625 -2.03890625 10.67765625 -2.37890625 15.09765625 C-4.64056857 11.70516277 -4.6240617 10.44564124 -4.56640625 6.47265625 C-4.55996094 5.49039063 -4.55351563 4.508125 -4.546875 3.49609375 C-4.28320493 -0.26886955 -3.90705388 0.11292063 0 0 Z " fill="#947B6A" transform="translate(110.37890625,54.90234375)"/>
<path d="M0 0 C2.37625177 -0.10883596 4.74743976 -0.18766696 7.125 -0.25 C7.79015625 -0.28351562 8.4553125 -0.31703125 9.140625 -0.3515625 C14.48679071 -0.45638928 16.95810162 0.80173773 21 4 C17.67465243 5.10844919 15.37817425 4.84454356 12 4 C12.33 3.34 12.66 2.68 13 2 C8.71 1.67 4.42 1.34 0 1 C0 0.67 0 0.34 0 0 Z " fill="#887263" transform="translate(155,30)"/>
<path d="M0 0 C0.99 0.33 1.98 0.66 3 1 C1.98046875 2.984375 1.98046875 2.984375 0 5 C-2.71229503 5.29642569 -4.99739732 5.38061189 -7.6875 5.25 C-8.7403418 5.22292969 -8.7403418 5.22292969 -9.81445312 5.1953125 C-11.54355436 5.14826213 -13.27195205 5.07651873 -15 5 C-15 4.67 -15 4.34 -15 4 C-13.62714844 3.94392578 -13.62714844 3.94392578 -12.2265625 3.88671875 C-11.03804688 3.82097656 -9.84953125 3.75523438 -8.625 3.6875 C-7.44164063 3.62949219 -6.25828125 3.57148437 -5.0390625 3.51171875 C-4.03617188 3.34285156 -3.03328125 3.17398438 -2 3 C-1.34 2.01 -0.68 1.02 0 0 Z " fill="#B5A092" transform="translate(123,50)"/>
<path d="M0 0 C3.6875 0.25 3.6875 0.25 7.6875 3.25 C4.3875 3.25 1.0875 3.25 -2.3125 3.25 C-2.9725 4.57 -3.6325 5.89 -4.3125 7.25 C-4.35504356 5.25045254 -4.35330783 3.24958364 -4.3125 1.25 C-3.3125 0.25 -3.3125 0.25 0 0 Z " fill="#957C6C" transform="translate(146.3125,43.75)"/>
</svg>
